# xmcd
#
# Track frame offsets: 
#        150
#        14705
#        29601
#        44760
#        61683
#        73863
#        89046
#        105481
#        117362
#        132873
#        149287
#        162184
#        176668
#        190242
#        202817
#        219867
#        235185
#        249814
#        265881
#        284022
#        299277
#        316220
#        331565
#
# Disc length: 4600 seconds
#
# Revision: 0
# Processed by: cddbd v1.5.2PL0 Copyright (c) Steve Scherf et al.
# Submitted via: ExactAudioCopy v0.99pb4
#
DISCID=5711f617
DTITLE=Various Artist - MNM Big Hits 2015-3
DYEAR=2015
DGENRE=Top 40
TTITLE0=Matt Simons - Catch and Release (Deepend Remix)
TTITLE1=Zara Larsson - Lush Life
TTITLE2=Justin Bieber - What Do You Mean
TTITLE3=Sigala - Easy Love
TTITLE4=Pharrell Williams - Freedom
TTITLE5=Rachel Platten - Fight Song
TTITLE6=Robin Schulz Feat. Francesco Yates - Sugar
TTITLE7=Lost Frequencies Feat. Janieck Devy - Reality
TTITLE8=Sam Feldt Feat. Kimberly Anne - Show Me Love
TTITLE9=Regi and Lester Williams Feat. Patti Russo - When It Comes To Lo
TTITLE9=ve
TTITLE10=Dimitri Vegas and Like Mike Feat. Ne-Yo - Higher Place
TTITLE11=Eva Simons Feat. Konshens - Policeman
TTITLE12=Axwell V Ingrosso - Sun Is Shining
TTITLE13=The Magician - Together
TTITLE14=Netsky - Rio
TTITLE15=Lea Rue - I Can't Say No! (Broiler Remix)
TTITLE16=Emma Bale - Run (Lost Frequencies Remix)
TTITLE17=Madcon Feat. Ray Dalton - Don't Worry
TTITLE18=Sam Hunt - Take Your Time
TTITLE19=Major Lazer Feat. Ellie Goulding and Tarrus Riley - Powerful
TTITLE20=R. City Feat. Adam Levine - Locked Away
TTITLE21=Madilyn Bailey - Titanium
TTITLE22=Stromae - Quand C'Est
EXTD=
EXTT0=
EXTT1=
EXTT2=
EXTT3=
EXTT4=
EXTT5=
EXTT6=
EXTT7=
EXTT8=
EXTT9=
EXTT10=
EXTT11=
EXTT12=
EXTT13=
EXTT14=
EXTT15=
EXTT16=
EXTT17=
EXTT18=
EXTT19=
EXTT20=
EXTT21=
EXTT22=
PLAYORDER=
